<svg id="laptop-code" xmlns="http://www.w3.org/2000/svg" width="26.777" height="21.422" viewBox="0 0 26.777 21.422">
  <path id="laptop-code-2" data-name="laptop-code" d="M10.67,10.947a.669.669,0,0,0,.947,0l.473-.473a.669.669,0,0,0,0-.947L10.6,8.033,12.09,6.539a.669.669,0,0,0,0-.947l-.473-.473a.669.669,0,0,0-.947,0L8.229,7.56a.669.669,0,0,0,0,.947Zm4.017-.473.473.473a.669.669,0,0,0,.947,0l2.441-2.441a.669.669,0,0,0,0-.947L16.107,5.119a.669.669,0,0,0-.947,0l-.473.473a.669.669,0,0,0,0,.947l1.494,1.494L14.687,9.528a.669.669,0,0,0,0,.947Zm11.42,6.931H15.963a1.319,1.319,0,0,1-1.37,1.339H12.05a1.421,1.421,0,0,1-1.371-1.339H.669A.671.671,0,0,0,0,18.075v.669a2.686,2.686,0,0,0,2.678,2.678H24.1a2.686,2.686,0,0,0,2.678-2.678v-.669A.671.671,0,0,0,26.108,17.405ZM24.1,2.008A2.014,2.014,0,0,0,22.091,0H4.686A2.014,2.014,0,0,0,2.678,2.008V16.066H24.1Zm-2.678,11.38H5.355V2.678H21.422Z" transform="translate(0 0)" fill="#384047"/>
</svg>
