<svg xmlns="http://www.w3.org/2000/svg" width="30" height="22.5" viewBox="0 0 30 22.5">
  <g id="envelope" transform="translate(31 11.25)">
    <path id="envelope-2" data-name="envelope" d="M29.432,7.43A.353.353,0,0,1,30,7.705V19.688A2.813,2.813,0,0,1,27.188,22.5H2.813A2.813,2.813,0,0,1,0,19.688V7.711a.35.35,0,0,1,.568-.275C1.881,8.455,3.621,9.75,9.6,14.092c1.236.9,3.322,2.8,5.4,2.789,2.092.018,4.219-1.922,5.408-2.789C26.385,9.75,28.119,8.449,29.432,7.43ZM15,15c1.359.023,3.316-1.711,4.3-2.426,7.775-5.643,8.367-6.135,10.16-7.541A1.4,1.4,0,0,0,30,3.926V2.813A2.813,2.813,0,0,0,27.188,0H2.813A2.813,2.813,0,0,0,0,2.812V3.926A1.411,1.411,0,0,0,.539,5.033c1.793,1.4,2.385,1.9,10.16,7.541.984.715,2.941,2.449,4.3,2.426Z" transform="translate(-31 -11.25)" fill="#384047"/>
  </g>
</svg>
