<svg xmlns="http://www.w3.org/2000/svg" xmlns:xlink="http://www.w3.org/1999/xlink" width="167.999" height="20.924" viewBox="0 0 167.999 20.924">
  <defs>
    <clipPath id="clip-path">
      <rect id="Rectangle_1192" data-name="Rectangle 1192" width="167.999" height="20.924" fill="none"/>
    </clipPath>
  </defs>
  <g id="InstinctHub-no-slogan" transform="translate(84 10.462)">
    <g id="Group_383" data-name="Group 383" transform="translate(-84 -10.462)" clip-path="url(#clip-path)">
      <path id="Path_1711" data-name="Path 1711" d="M103.252,40.2v7.981h-4.88V41c0-2.01-.88-2.852-2.3-2.852s-2.775.976-2.775,3.292v6.737H88.4V34.23h4.651v1.512A5.955,5.955,0,0,1,97.472,34c3.292,0,5.78,1.876,5.78,6.2" transform="translate(-71.481 -27.493)" fill="#303030"/>
      <path id="Path_1712" data-name="Path 1712" d="M176.2,46.976l1.474-3.349a9.682,9.682,0,0,0,4.861,1.282c1.7,0,2.182-.364,2.182-.957,0-1.876-8.23.249-8.23-5.321,0-2.622,2.411-4.632,6.794-4.632a12.379,12.379,0,0,1,5.512,1.187L187.32,38.5a8.172,8.172,0,0,0-4.019-1.033c-1.646,0-2.239.459-2.239.976,0,1.933,8.21-.153,8.21,5.378,0,2.565-2.373,4.574-6.89,4.574a12.933,12.933,0,0,1-6.182-1.435" transform="translate(-142.478 -27.493)" fill="#303030"/>
      <path id="Path_1713" data-name="Path 1713" d="M258.981,35.5a6.6,6.6,0,0,1-3.407.8c-3.579,0-5.665-1.742-5.665-5.321V26.273H247.9V22.617h2.029V19h4.9v3.636h3.2v3.636h-3.2V30.9a1.411,1.411,0,0,0,1.474,1.589,2.679,2.679,0,0,0,1.493-.44Z" transform="translate(-200.455 -15.364)" fill="#303030"/>
      <path id="Path_1714" data-name="Path 1714" d="M312.8,2.6A2.7,2.7,0,0,1,315.786,0c1.8,0,2.986,1.053,2.986,2.526a2.758,2.758,0,0,1-2.986,2.679A2.7,2.7,0,0,1,312.8,2.6m.536,4.153h4.88V20.708h-4.861Z" transform="translate(-252.934)" fill="#303030"/>
      <path id="Path_1715" data-name="Path 1715" d="M372.552,40.2v7.981h-4.88V41c0-2.01-.88-2.852-2.3-2.852s-2.775.976-2.775,3.292v6.737h-4.9V34.23h4.651v1.512A5.955,5.955,0,0,1,366.772,34c3.273,0,5.761,1.876,5.761,6.2" transform="translate(-289.241 -27.493)" fill="#303030"/>
      <path id="Path_1716" data-name="Path 1716" d="M447.8,41.177c0-4.191,3.311-7.177,8-7.177,3.158,0,5.589,1.416,6.545,3.828l-3.789,1.933a3.029,3.029,0,0,0-5.818,1.416,3.032,3.032,0,0,0,5.818,1.474l3.789,1.933c-.957,2.411-3.368,3.828-6.545,3.828-4.689,0-8-2.986-8-7.234" transform="translate(-362.097 -27.493)" fill="#303030"/>
      <path id="Path_1717" data-name="Path 1717" d="M538.1,35.5a6.6,6.6,0,0,1-3.407.8c-3.579,0-5.665-1.742-5.665-5.321V26.273H527V22.617h2.029V19h4.9v3.636h3.2v3.636h-3.2V30.9a1.411,1.411,0,0,0,1.474,1.589,2.68,2.68,0,0,0,1.493-.44Z" transform="translate(-426.139 -15.364)" fill="#303030"/>
      <path id="Path_1718" data-name="Path 1718" d="M613.129,14V32.009h-5.091V24.986h-6.947v7.024H596V14h5.091v6.775h6.947V14Z" transform="translate(-481.933 -11.321)" fill="#00838f"/>
      <path id="Path_1719" data-name="Path 1719" d="M717.618,35.2V49.152h-4.651V47.659a5.53,5.53,0,0,1-4.153,1.722c-3.426,0-5.914-1.952-5.914-6.392V35.2h4.88v7c0,2.163.842,3,2.316,3s2.622-.957,2.622-3.292V35.2Z" transform="translate(-568.374 -28.463)" fill="#00838f"/>
      <path id="Path_1720" data-name="Path 1720" d="M811.817,20.4c0,4.459-3.062,7.234-6.852,7.234A5.021,5.021,0,0,1,800.851,26v1.4H796.2V8.3h4.9v6.373a5.185,5.185,0,0,1,3.885-1.435c3.789,0,6.852,2.756,6.852,7.177m-4.938,0c0-2.105-1.282-3.292-2.928-3.292s-2.928,1.187-2.928,3.292,1.244,3.33,2.909,3.33,2.928-1.206,2.928-3.349" transform="translate(-643.818 -6.711)" fill="#00838f"/>
      <path id="Path_1721" data-name="Path 1721" d="M20.657,51.5h4.632c.517,0,.957.689.957,1.531v7.407c0,.842-.421,1.531-.957,1.531H20.657c-.517,0-.957-.689-.957-1.531V53.031c0-.842.421-1.531.957-1.531" transform="translate(-15.93 -41.644)" fill="#303030" fill-rule="evenodd"/>
      <path id="Path_1722" data-name="Path 1722" d="M14.7,93.8h0" transform="translate(-11.887 -75.848)" fill="#1b75bb"/>
      <path id="Path_1723" data-name="Path 1723" d="M14.028,8.231A7.024,7.024,0,0,0,8.554,1.972L7.5,1.8H6.526l-.536.077A7.043,7.043,0,0,0-.039,8.537,6.813,6.813,0,0,0,2.143,13.9a1.779,1.779,0,0,1,.651,1.033V12.594A5.362,5.362,0,0,1,1.435,8.039,5.646,5.646,0,1,1,12.593,9.666a5.55,5.55,0,0,1-1.359,2.909v2.316a.9.9,0,0,1,.325-.689,6.865,6.865,0,0,0,2.469-5.971" transform="translate(0.039 -1.456)" fill="#00838f"/>
      <path id="Path_1724" data-name="Path 1724" d="M15.408,21.516a.721.721,0,0,0,.708-.766,3.464,3.464,0,0,1,.115-.727,2.813,2.813,0,0,1,2.641-2.029.708.708,0,0,0,.727-.459c.191-.517-.191-.957-.785-.938A4.23,4.23,0,0,0,14.7,20.731a.741.741,0,0,0,.689.8" transform="translate(-11.887 -13.42)" fill="#00838f"/>
    </g>
  </g>
</svg>
