<svg xmlns="http://www.w3.org/2000/svg" width="1007.6" height="692.506" viewBox="0 0 1007.6 692.506">
  <g id="Group_132" data-name="Group 132" transform="translate(1.6 1.632)" opacity="0.071">
    <g id="Group_81" data-name="Group 81" transform="translate(5.992 0.557)">
      <path id="Path_746" data-name="Path 746" d="M1720.96,117.384V106.557h48.49v47.967h-14.591" transform="translate(-1706.369 -106.557)" fill="none" stroke="#c1ccd3" stroke-linecap="round" stroke-miterlimit="10" stroke-width="4"/>
      <rect id="Rectangle_497" data-name="Rectangle 497" width="48.489" height="10.827" transform="translate(14.592)" fill="none" stroke="#0277bd" stroke-linecap="round" stroke-miterlimit="10" stroke-width="4"/>
      <rect id="Rectangle_498" data-name="Rectangle 498" width="3.883" height="3.883" transform="translate(20.224 3.86)" fill="none"/>
      <rect id="Rectangle_499" data-name="Rectangle 499" width="3.883" height="3.883" transform="translate(27.61 3.86)" fill="none"/>
      <rect id="Rectangle_500" data-name="Rectangle 500" width="3.883" height="3.883" transform="translate(35.115 3.86)" fill="none"/>
      <path id="Path_747" data-name="Path 747" d="M1753.458,166.119h-48.49V118.152h48.49v47.967Z" transform="translate(-1704.968 -107.572)" fill="none" stroke="#c1ccd3" stroke-linecap="round" stroke-miterlimit="10" stroke-width="4"/>
      <g id="Group_80" data-name="Group 80" transform="translate(7.104 22.419)">
        <path id="Path_748" data-name="Path 748" d="M1720.241,134.222l-7.488,9.084,7.488,7.611" transform="translate(-1712.753 -131.399)" fill="none" stroke="#0277bd" stroke-linecap="round" stroke-linejoin="round" stroke-width="2"/>
        <path id="Path_749" data-name="Path 749" d="M1741.276,134.222l7.857,8.347-7,8.347" transform="translate(-1715.252 -131.399)" fill="none" stroke="#0277bd" stroke-linecap="round" stroke-linejoin="round" stroke-width="2"/>
        <line id="Line_9" data-name="Line 9" x1="9.698" y2="22.71" transform="translate(12.153)" fill="none" stroke="#0277bd" stroke-linecap="round" stroke-linejoin="round" stroke-width="2"/>
      </g>
    </g>
    <g id="Group_83" data-name="Group 83" transform="translate(410.697 210.364)">
      <path id="Path_750" data-name="Path 750" d="M2164.519,284.277V273.45h48.49v47.967h-14.591" transform="translate(-2149.927 -273.45)" fill="none" stroke="#c1ccd3" stroke-linecap="round" stroke-miterlimit="10" stroke-width="4"/>
      <rect id="Rectangle_501" data-name="Rectangle 501" width="48.489" height="10.827" transform="translate(14.592)" fill="none" stroke="#0277bd" stroke-linecap="round" stroke-miterlimit="10" stroke-width="4"/>
      <rect id="Rectangle_502" data-name="Rectangle 502" width="3.883" height="3.883" transform="translate(20.224 3.86)" fill="none"/>
      <rect id="Rectangle_503" data-name="Rectangle 503" width="3.883" height="3.883" transform="translate(27.61 3.86)" fill="none"/>
      <rect id="Rectangle_504" data-name="Rectangle 504" width="3.883" height="3.883" transform="translate(35.115 3.86)" fill="none"/>
      <path id="Path_751" data-name="Path 751" d="M2197.017,333.012h-48.49V285.046h48.49v47.967Z" transform="translate(-2148.527 -274.466)" fill="none" stroke="#c1ccd3" stroke-linecap="round" stroke-miterlimit="10" stroke-width="4"/>
      <g id="Group_82" data-name="Group 82" transform="translate(7.104 22.419)">
        <path id="Path_752" data-name="Path 752" d="M2163.8,301.116l-7.488,9.084,7.488,7.611" transform="translate(-2156.312 -298.292)" fill="none" stroke="#0277bd" stroke-linecap="round" stroke-linejoin="round" stroke-width="2"/>
        <path id="Path_753" data-name="Path 753" d="M2184.835,301.116l7.857,8.347-7,8.347" transform="translate(-2158.811 -298.292)" fill="none" stroke="#0277bd" stroke-linecap="round" stroke-linejoin="round" stroke-width="2"/>
        <line id="Line_10" data-name="Line 10" x1="9.698" y2="22.71" transform="translate(12.153)" fill="none" stroke="#0277bd" stroke-linecap="round" stroke-linejoin="round" stroke-width="2"/>
      </g>
    </g>
    <g id="Group_86" data-name="Group 86" transform="translate(132.076)">
      <g id="Group_84" data-name="Group 84" transform="translate(17.674 18.079)">
        <path id="Path_754" data-name="Path 754" d="M1910.008,133.789c-1.141-4.578-3.3-8.029-7.911-8.029h-5.941v7.022a10.161,10.161,0,0,1-9.9,10.045h-15.822a8.073,8.073,0,0,0-7.911,8.044v15.082c0,4.3,3.734,6.815,7.911,8.044a26.616,26.616,0,0,0,15.822,0c3.984-1.155,7.911-3.481,7.911-8.044v-6.03h-15.807v-2.015H1902.1c4.607,0,6.311-3.214,7.911-8.029,1.66-4.963,1.586-9.734,0-16.089Z" transform="translate(-1862.527 -125.76)" fill="none" stroke="#0277bd" stroke-linecap="round" stroke-miterlimit="10" stroke-width="3.2"/>
        <path id="Path_755" data-name="Path 755" d="M1889.34,167.6a3.015,3.015,0,1,1-2.977,3.007A2.994,2.994,0,0,1,1889.34,167.6Z" transform="translate(-1864.615 -129.425)" fill="none" stroke="#0277bd" stroke-linecap="round" stroke-miterlimit="10" stroke-width="3.2"/>
      </g>
      <g id="Group_85" data-name="Group 85">
        <path id="Path_756" data-name="Path 756" d="M1868.015,137.96h15.822a7.976,7.976,0,0,0,7.91-8.045v-15.1c0-4.3-3.614-7.511-7.91-8.237a48.819,48.819,0,0,0-15.822.016c-6.7,1.185-7.911,3.659-7.911,8.236v6.03h15.837v2.015h-21.777a9.891,9.891,0,0,0-9.9,8.029,29.677,29.677,0,0,0,0,16.089c1.126,4.681,3.807,8.029,8.415,8.029h5.437V147.8a10.059,10.059,0,0,1,9.9-9.837Z" transform="translate(-1843.156 -105.946)" fill="none" stroke="#c1ccd3" stroke-linecap="round" stroke-miterlimit="10" stroke-width="3.2"/>
        <path id="Path_757" data-name="Path 757" d="M1869.028,117.3a3.015,3.015,0,1,1,2.978-3.007A2.993,2.993,0,0,1,1869.028,117.3Z" transform="translate(-1845.162 -106.412)" fill="none" stroke="#c1ccd3" stroke-linecap="round" stroke-miterlimit="10" stroke-width="3.2"/>
      </g>
    </g>
    <g id="Group_87" data-name="Group 87" transform="translate(278.184 1.595)">
      <rect id="Rectangle_505" data-name="Rectangle 505" width="29.367" height="25.972" transform="translate(17.484)" fill="none" stroke="#0277bd" stroke-linecap="round" stroke-miterlimit="10" stroke-width="3.2"/>
      <rect id="Rectangle_506" data-name="Rectangle 506" width="29.367" height="25.972" transform="translate(0 12.986)" fill="none" stroke="#c1ccd3" stroke-linecap="round" stroke-miterlimit="10" stroke-width="3.2"/>
      <rect id="Rectangle_507" data-name="Rectangle 507" width="29.367" height="25.972" transform="translate(20.2 33.525)" fill="none" stroke="#0277bd" stroke-linecap="round" stroke-miterlimit="10" stroke-width="3.2"/>
      <rect id="Rectangle_508" data-name="Rectangle 508" width="29.367" height="25.972" transform="translate(37.684 19.606)" fill="none" stroke="#c1ccd3" stroke-linecap="round" stroke-miterlimit="10" stroke-width="3.2"/>
    </g>
    <g id="Group_88" data-name="Group 88" transform="translate(132.682 206.87)">
      <path id="Path_758" data-name="Path 758" d="M1888.21,286.619h17.909v47.7h-62.3v-47.7h17.569" transform="translate(-1843.82 -270.896)" fill="none" stroke="#c1ccd3" stroke-linecap="round" stroke-miterlimit="10" stroke-width="3.2"/>
      <line id="Line_11" data-name="Line 11" x2="62.383" transform="translate(0 52.218)" fill="none" stroke="#c1ccd3" stroke-miterlimit="10" stroke-width="3.2"/>
      <line id="Line_12" data-name="Line 12" x2="24.953" transform="translate(18.842 71.315)" fill="none" stroke="#c1ccd3" stroke-miterlimit="10" stroke-width="3.2"/>
      <g id="lightbulb" transform="translate(15.617)">
        <path id="Path_759" data-name="Path 759" d="M1876.052,276.257a8.255,8.255,0,0,0-8.245,8.245,1.374,1.374,0,0,0,2.748,0,5.5,5.5,0,0,1,5.5-5.5,1.375,1.375,0,0,0,0-2.749Zm-6.866,32.566a1.373,1.373,0,0,0,.23.759l2.1,3.164a1.378,1.378,0,0,0,1.144.613h6.773a1.376,1.376,0,0,0,1.144-.613l2.1-3.164a1.383,1.383,0,0,0,.23-.759l0-3.709h-13.739Zm6.866-39.437a15.108,15.108,0,0,0-11.375,25.06,24.578,24.578,0,0,1,4.5,7.915v.005h4.123v-.011a4.049,4.049,0,0,0-.185-1.208,27.078,27.078,0,0,0-5.339-9.42,10.993,10.993,0,1,1,16.55,0,27.152,27.152,0,0,0-5.334,9.4,4.1,4.1,0,0,0-.191,1.228v.009h4.122v0a24.578,24.578,0,0,1,4.5-7.915,15.11,15.11,0,0,0-11.376-25.061Z" transform="translate(-1860.936 -269.387)" fill="#0277bd"/>
      </g>
    </g>
    <g id="Group_90" data-name="Group 90" transform="translate(278.184 214.033)">
      <g id="Group_89" data-name="Group 89">
        <path id="Path_760" data-name="Path 760" d="M2020.309,276.572h45.281v47.7h-62.3v-47.7h17.569" transform="translate(-2003.292 -276.572)" fill="none" stroke="#c1ccd3" stroke-linecap="round" stroke-miterlimit="10" stroke-width="3.2"/>
        <line id="Line_13" data-name="Line 13" x2="62.383" transform="translate(0 36.496)" fill="none" stroke="#c1ccd3" stroke-miterlimit="10" stroke-width="3.2"/>
        <line id="Line_14" data-name="Line 14" x2="17.176" transform="translate(22.731 55.593)" fill="none" stroke="#c1ccd3" stroke-miterlimit="10" stroke-width="3.2"/>
      </g>
      <rect id="Rectangle_509" data-name="Rectangle 509" width="21.374" height="36.563" transform="translate(47.9 20.006)" fill="none" stroke="#0277bd" stroke-linecap="round" stroke-miterlimit="10" stroke-width="3.2"/>
    </g>
    <g id="Group_91" data-name="Group 91" transform="translate(0 208.209)">
      <path id="Path_761" data-name="Path 761" d="M1758.875,280.544v6.171c0,5.438-13.544,9.873-30.238,9.873s-30.237-4.435-30.237-9.873v-6.171c0-5.438,13.544-9.873,30.237-9.873S1758.875,275.106,1758.875,280.544Z" transform="translate(-1698.4 -270.671)" fill="none" stroke="#c1ccd3" stroke-linecap="round" stroke-miterlimit="10" stroke-width="3.2"/>
      <path id="Path_762" data-name="Path 762" d="M1758.875,296.709v13.885c0,5.438-13.544,9.873-30.238,9.873s-30.237-4.435-30.237-9.873V296.709c6.5,4.474,18.387,6.556,30.237,6.556S1752.378,301.183,1758.875,296.709Z" transform="translate(-1698.4 -272.952)" fill="none" stroke="#0277bd" stroke-linecap="round" stroke-miterlimit="10" stroke-width="3.2"/>
      <path id="Path_763" data-name="Path 763" d="M1758.875,320.381v13.884c0,5.438-13.544,9.873-30.238,9.873s-30.237-4.435-30.237-9.873V320.381c6.5,4.473,18.387,6.556,30.237,6.556S1752.378,324.854,1758.875,320.381Z" transform="translate(-1698.4 -275.025)" fill="none" stroke="#c1ccd3" stroke-linecap="round" stroke-miterlimit="10" stroke-width="3.2"/>
    </g>
    <g id="Group_92" data-name="Group 92" transform="translate(408.286 4.86)">
      <path id="Path_764" data-name="Path 764" d="M2166.78,111.272a6.41,6.41,0,0,0-6.209,4.842c-.08,0-.141-.02-.221-.02a6.436,6.436,0,0,0-6.43,6.43,5.929,5.929,0,0,0,.171,1.406,7.968,7.968,0,0,0-4.159,10.941,8.007,8.007,0,0,0,.914,14.366,7.364,7.364,0,0,0-.141,1.416,7.229,7.229,0,0,0,7.233,7.234,6.82,6.82,0,0,0,1.206-.12,7.216,7.216,0,0,0,14.064-2.291V117.7A6.435,6.435,0,0,0,2166.78,111.272Z" transform="translate(-2145.884 -111.272)" fill="none" stroke="#c1ccd3" stroke-linecap="round" stroke-miterlimit="10" stroke-width="3.2"/>
      <path id="Path_765" data-name="Path 765" d="M2206.681,141.812a7.993,7.993,0,0,0-4.048-6.942,7.9,7.9,0,0,0,.834-3.506,8.036,8.036,0,0,0-4.993-7.434,6.37,6.37,0,0,0-6.259-7.836c-.08,0-.15.02-.221.02a6.417,6.417,0,0,0-12.638,1.588v37.773a7.216,7.216,0,0,0,14.064,2.291,6.825,6.825,0,0,0,1.206.12,7.229,7.229,0,0,0,7.233-7.234,7.345,7.345,0,0,0-.141-1.416A8.038,8.038,0,0,0,2206.681,141.812Z" transform="translate(-2148.816 -111.272)" fill="none" stroke="#0277bd" stroke-linecap="round" stroke-miterlimit="10" stroke-width="3.2"/>
    </g>
    <g id="Group_94" data-name="Group 94" transform="translate(536.214 0.557)">
      <path id="Path_766" data-name="Path 766" d="M2302.086,117.384V106.557h48.49v47.967h-14.591" transform="translate(-2287.495 -106.557)" fill="none" stroke="#c1ccd3" stroke-linecap="round" stroke-miterlimit="10" stroke-width="4"/>
      <rect id="Rectangle_510" data-name="Rectangle 510" width="48.489" height="10.827" transform="translate(14.592)" fill="none" stroke="#0277bd" stroke-linecap="round" stroke-miterlimit="10" stroke-width="4"/>
      <rect id="Rectangle_511" data-name="Rectangle 511" width="3.883" height="3.883" transform="translate(20.224 3.86)" fill="none"/>
      <rect id="Rectangle_512" data-name="Rectangle 512" width="3.883" height="3.883" transform="translate(27.61 3.86)" fill="none"/>
      <rect id="Rectangle_513" data-name="Rectangle 513" width="3.883" height="3.883" transform="translate(35.115 3.86)" fill="none"/>
      <path id="Path_767" data-name="Path 767" d="M2334.585,166.119h-48.49V118.152h48.49v47.967Z" transform="translate(-2286.094 -107.572)" fill="none" stroke="#c1ccd3" stroke-linecap="round" stroke-miterlimit="10" stroke-width="4"/>
      <g id="Group_93" data-name="Group 93" transform="translate(7.104 22.419)">
        <path id="Path_768" data-name="Path 768" d="M2301.368,134.222l-7.488,9.084,7.488,7.611" transform="translate(-2293.88 -131.399)" fill="none" stroke="#0277bd" stroke-linecap="round" stroke-linejoin="round" stroke-width="2"/>
        <path id="Path_769" data-name="Path 769" d="M2322.4,134.222l7.856,8.347-7,8.347" transform="translate(-2296.378 -131.399)" fill="none" stroke="#0277bd" stroke-linecap="round" stroke-linejoin="round" stroke-width="2"/>
        <line id="Line_15" data-name="Line 15" x1="9.698" y2="22.71" transform="translate(12.153)" fill="none" stroke="#0277bd" stroke-linecap="round" stroke-linejoin="round" stroke-width="2"/>
      </g>
    </g>
    <g id="Group_96" data-name="Group 96" transform="translate(940.918 210.364)">
      <path id="Path_770" data-name="Path 770" d="M2745.645,284.277V273.45h48.49v47.967h-14.591" transform="translate(-2731.054 -273.45)" fill="none" stroke="#c1ccd3" stroke-linecap="round" stroke-miterlimit="10" stroke-width="4"/>
      <rect id="Rectangle_514" data-name="Rectangle 514" width="48.489" height="10.827" transform="translate(14.592)" fill="none" stroke="#0277bd" stroke-linecap="round" stroke-miterlimit="10" stroke-width="4"/>
      <rect id="Rectangle_515" data-name="Rectangle 515" width="3.883" height="3.883" transform="translate(20.224 3.86)" fill="none"/>
      <rect id="Rectangle_516" data-name="Rectangle 516" width="3.883" height="3.883" transform="translate(27.61 3.86)" fill="none"/>
      <rect id="Rectangle_517" data-name="Rectangle 517" width="3.883" height="3.883" transform="translate(35.115 3.86)" fill="none"/>
      <path id="Path_771" data-name="Path 771" d="M2778.144,333.012h-48.49V285.046h48.49v47.967Z" transform="translate(-2729.653 -274.466)" fill="none" stroke="#c1ccd3" stroke-linecap="round" stroke-miterlimit="10" stroke-width="4"/>
      <g id="Group_95" data-name="Group 95" transform="translate(7.104 22.419)">
        <path id="Path_772" data-name="Path 772" d="M2744.927,301.116l-7.488,9.084,7.488,7.611" transform="translate(-2737.439 -298.292)" fill="none" stroke="#0277bd" stroke-linecap="round" stroke-linejoin="round" stroke-width="2"/>
        <path id="Path_773" data-name="Path 773" d="M2765.962,301.116l7.856,8.347-7,8.347" transform="translate(-2739.938 -298.292)" fill="none" stroke="#0277bd" stroke-linecap="round" stroke-linejoin="round" stroke-width="2"/>
        <line id="Line_16" data-name="Line 16" x1="9.698" y2="22.71" transform="translate(12.153)" fill="none" stroke="#0277bd" stroke-linecap="round" stroke-linejoin="round" stroke-width="2"/>
      </g>
    </g>
    <g id="Group_99" data-name="Group 99" transform="translate(662.298)">
      <g id="Group_97" data-name="Group 97" transform="translate(17.674 18.079)">
        <path id="Path_774" data-name="Path 774" d="M2491.135,133.789c-1.141-4.578-3.3-8.029-7.912-8.029h-5.941v7.022a10.161,10.161,0,0,1-9.9,10.045h-15.822a8.073,8.073,0,0,0-7.91,8.044v15.082c0,4.3,3.734,6.815,7.91,8.044a26.616,26.616,0,0,0,15.822,0c3.985-1.155,7.911-3.481,7.911-8.044v-6.03h-15.807v-2.015h23.732c4.608,0,6.311-3.214,7.912-8.029,1.658-4.963,1.585-9.734,0-16.089Z" transform="translate(-2443.654 -125.76)" fill="none" stroke="#0277bd" stroke-linecap="round" stroke-miterlimit="10" stroke-width="3.2"/>
        <path id="Path_775" data-name="Path 775" d="M2470.467,167.6a3.015,3.015,0,1,1-2.978,3.007A2.995,2.995,0,0,1,2470.467,167.6Z" transform="translate(-2445.742 -129.425)" fill="none" stroke="#0277bd" stroke-linecap="round" stroke-miterlimit="10" stroke-width="3.2"/>
      </g>
      <g id="Group_98" data-name="Group 98">
        <path id="Path_776" data-name="Path 776" d="M2449.143,137.96h15.822a7.976,7.976,0,0,0,7.91-8.045v-15.1c0-4.3-3.615-7.511-7.91-8.237a48.819,48.819,0,0,0-15.822.016c-6.7,1.185-7.912,3.659-7.912,8.236v6.03h15.837v2.015H2435.29a9.89,9.89,0,0,0-9.9,8.029,29.679,29.679,0,0,0,0,16.089c1.126,4.681,3.808,8.029,8.415,8.029h5.436V147.8a10.06,10.06,0,0,1,9.9-9.837Z" transform="translate(-2424.283 -105.946)" fill="none" stroke="#c1ccd3" stroke-linecap="round" stroke-miterlimit="10" stroke-width="3.2"/>
        <path id="Path_777" data-name="Path 777" d="M2450.155,117.3a3.015,3.015,0,1,1,2.977-3.007A2.994,2.994,0,0,1,2450.155,117.3Z" transform="translate(-2426.289 -106.412)" fill="none" stroke="#c1ccd3" stroke-linecap="round" stroke-miterlimit="10" stroke-width="3.2"/>
      </g>
    </g>
    <g id="Group_100" data-name="Group 100" transform="translate(808.406 1.595)">
      <rect id="Rectangle_518" data-name="Rectangle 518" width="29.367" height="25.972" transform="translate(17.484)" fill="none" stroke="#0277bd" stroke-linecap="round" stroke-miterlimit="10" stroke-width="3.2"/>
      <rect id="Rectangle_519" data-name="Rectangle 519" width="29.367" height="25.972" transform="translate(0 12.986)" fill="none" stroke="#c1ccd3" stroke-linecap="round" stroke-miterlimit="10" stroke-width="3.2"/>
      <rect id="Rectangle_520" data-name="Rectangle 520" width="29.367" height="25.972" transform="translate(20.2 33.525)" fill="none" stroke="#0277bd" stroke-linecap="round" stroke-miterlimit="10" stroke-width="3.2"/>
      <rect id="Rectangle_521" data-name="Rectangle 521" width="29.367" height="25.972" transform="translate(37.684 19.606)" fill="none" stroke="#c1ccd3" stroke-linecap="round" stroke-miterlimit="10" stroke-width="3.2"/>
    </g>
    <g id="Group_101" data-name="Group 101" transform="translate(662.903 206.87)">
      <path id="Path_778" data-name="Path 778" d="M2469.336,286.619h17.909v47.7h-62.3v-47.7h17.569" transform="translate(-2424.947 -270.896)" fill="none" stroke="#c1ccd3" stroke-linecap="round" stroke-miterlimit="10" stroke-width="3.2"/>
      <line id="Line_17" data-name="Line 17" x2="62.383" transform="translate(0 52.218)" fill="none" stroke="#c1ccd3" stroke-miterlimit="10" stroke-width="3.2"/>
      <line id="Line_18" data-name="Line 18" x2="24.953" transform="translate(18.842 71.315)" fill="none" stroke="#c1ccd3" stroke-miterlimit="10" stroke-width="3.2"/>
      <g id="lightbulb-2" data-name="lightbulb" transform="translate(15.616)">
        <path id="Path_779" data-name="Path 779" d="M2457.179,276.257a8.254,8.254,0,0,0-8.245,8.245,1.374,1.374,0,0,0,2.748,0,5.5,5.5,0,0,1,5.5-5.5,1.375,1.375,0,0,0,0-2.749Zm-6.866,32.566a1.366,1.366,0,0,0,.23.759l2.105,3.164a1.377,1.377,0,0,0,1.144.613h6.772a1.373,1.373,0,0,0,1.144-.613l2.1-3.164a1.381,1.381,0,0,0,.231-.759l0-3.709h-13.738Zm6.866-39.437a15.107,15.107,0,0,0-11.375,25.06,24.576,24.576,0,0,1,4.5,7.915v.005h4.122v-.011a4.017,4.017,0,0,0-.184-1.208,27.083,27.083,0,0,0-5.339-9.42,10.994,10.994,0,1,1,16.549,0,27.145,27.145,0,0,0-5.333,9.4,4.076,4.076,0,0,0-.191,1.228v.009h4.122v0a24.544,24.544,0,0,1,4.5-7.915,15.109,15.109,0,0,0-11.376-25.061Z" transform="translate(-2442.062 -269.387)" fill="#0277bd"/>
      </g>
    </g>
    <g id="Group_103" data-name="Group 103" transform="translate(808.406 214.033)">
      <g id="Group_102" data-name="Group 102">
        <path id="Path_780" data-name="Path 780" d="M2601.436,276.572h45.281v47.7h-62.3v-47.7h17.569" transform="translate(-2584.418 -276.572)" fill="none" stroke="#c1ccd3" stroke-linecap="round" stroke-miterlimit="10" stroke-width="3.2"/>
        <line id="Line_19" data-name="Line 19" x2="62.383" transform="translate(0 36.496)" fill="none" stroke="#c1ccd3" stroke-miterlimit="10" stroke-width="3.2"/>
        <line id="Line_20" data-name="Line 20" x2="17.176" transform="translate(22.731 55.593)" fill="none" stroke="#c1ccd3" stroke-miterlimit="10" stroke-width="3.2"/>
      </g>
      <rect id="Rectangle_522" data-name="Rectangle 522" width="21.374" height="36.563" transform="translate(47.9 20.006)" fill="none" stroke="#0277bd" stroke-linecap="round" stroke-miterlimit="10" stroke-width="3.2"/>
    </g>
    <g id="Group_104" data-name="Group 104" transform="translate(530.222 208.209)">
      <path id="Path_781" data-name="Path 781" d="M2340,280.544v6.171c0,5.438-13.544,9.873-30.237,9.873s-30.237-4.435-30.237-9.873v-6.171c0-5.438,13.544-9.873,30.237-9.873S2340,275.106,2340,280.544Z" transform="translate(-2279.527 -270.671)" fill="none" stroke="#c1ccd3" stroke-linecap="round" stroke-miterlimit="10" stroke-width="3.2"/>
      <path id="Path_782" data-name="Path 782" d="M2340,296.709v13.885c0,5.438-13.544,9.873-30.237,9.873s-30.237-4.435-30.237-9.873V296.709c6.5,4.474,18.386,6.556,30.237,6.556S2333.5,301.183,2340,296.709Z" transform="translate(-2279.527 -272.952)" fill="none" stroke="#0277bd" stroke-linecap="round" stroke-miterlimit="10" stroke-width="3.2"/>
      <path id="Path_783" data-name="Path 783" d="M2340,320.381v13.884c0,5.438-13.544,9.873-30.237,9.873s-30.237-4.435-30.237-9.873V320.381c6.5,4.473,18.386,6.556,30.237,6.556S2333.5,324.854,2340,320.381Z" transform="translate(-2279.527 -275.025)" fill="none" stroke="#c1ccd3" stroke-linecap="round" stroke-miterlimit="10" stroke-width="3.2"/>
    </g>
    <g id="Group_105" data-name="Group 105" transform="translate(938.507 4.86)">
      <path id="Path_784" data-name="Path 784" d="M2747.906,111.272a6.41,6.41,0,0,0-6.208,4.842c-.08,0-.14-.02-.221-.02a6.436,6.436,0,0,0-6.43,6.43,5.9,5.9,0,0,0,.171,1.406,7.968,7.968,0,0,0-4.159,10.941,8.007,8.007,0,0,0,.915,14.366,7.364,7.364,0,0,0-.142,1.416,7.229,7.229,0,0,0,7.233,7.234,6.819,6.819,0,0,0,1.206-.12,7.216,7.216,0,0,0,14.064-2.291V117.7A6.435,6.435,0,0,0,2747.906,111.272Z" transform="translate(-2727.01 -111.272)" fill="none" stroke="#c1ccd3" stroke-linecap="round" stroke-miterlimit="10" stroke-width="3.2"/>
      <path id="Path_785" data-name="Path 785" d="M2787.807,141.812a8,8,0,0,0-4.048-6.942,7.915,7.915,0,0,0,.834-3.506,8.037,8.037,0,0,0-4.993-7.434,6.366,6.366,0,0,0-6.258-7.836c-.08,0-.151.02-.221.02a6.418,6.418,0,0,0-12.639,1.588v37.773a7.216,7.216,0,0,0,14.065,2.291,6.825,6.825,0,0,0,1.205.12,7.229,7.229,0,0,0,7.234-7.234,7.364,7.364,0,0,0-.141-1.416A8.038,8.038,0,0,0,2787.807,141.812Z" transform="translate(-2729.942 -111.272)" fill="none" stroke="#0277bd" stroke-linecap="round" stroke-miterlimit="10" stroke-width="3.2"/>
    </g>
    <g id="Group_107" data-name="Group 107" transform="translate(5.992 408.658)">
      <path id="Path_786" data-name="Path 786" d="M1720.96,442.171V431.344h48.49v47.967h-14.591" transform="translate(-1706.369 -431.344)" fill="none" stroke="#c1ccd3" stroke-linecap="round" stroke-miterlimit="10" stroke-width="4"/>
      <rect id="Rectangle_523" data-name="Rectangle 523" width="48.489" height="10.827" transform="translate(14.592)" fill="none" stroke="#0277bd" stroke-linecap="round" stroke-miterlimit="10" stroke-width="4"/>
      <rect id="Rectangle_524" data-name="Rectangle 524" width="3.883" height="3.883" transform="translate(20.224 3.86)" fill="none"/>
      <rect id="Rectangle_525" data-name="Rectangle 525" width="3.883" height="3.883" transform="translate(27.61 3.86)" fill="none"/>
      <rect id="Rectangle_526" data-name="Rectangle 526" width="3.883" height="3.883" transform="translate(35.115 3.86)" fill="none"/>
      <path id="Path_787" data-name="Path 787" d="M1753.458,490.906h-48.49V442.939h48.49v47.967Z" transform="translate(-1704.968 -432.36)" fill="none" stroke="#c1ccd3" stroke-linecap="round" stroke-miterlimit="10" stroke-width="4"/>
      <g id="Group_106" data-name="Group 106" transform="translate(7.104 22.419)">
        <path id="Path_788" data-name="Path 788" d="M1720.241,459.009l-7.488,9.084,7.488,7.611" transform="translate(-1712.753 -456.186)" fill="none" stroke="#0277bd" stroke-linecap="round" stroke-linejoin="round" stroke-width="2"/>
        <path id="Path_789" data-name="Path 789" d="M1741.276,459.009l7.857,8.347-7,8.348" transform="translate(-1715.252 -456.186)" fill="none" stroke="#0277bd" stroke-linecap="round" stroke-linejoin="round" stroke-width="2"/>
        <line id="Line_21" data-name="Line 21" x1="9.698" y2="22.71" transform="translate(12.153)" fill="none" stroke="#0277bd" stroke-linecap="round" stroke-linejoin="round" stroke-width="2"/>
      </g>
    </g>
    <g id="Group_109" data-name="Group 109" transform="translate(410.697 621.666)">
      <path id="Path_790" data-name="Path 790" d="M2164.519,609.064V598.237h48.49V646.2h-14.591" transform="translate(-2149.927 -598.237)" fill="none" stroke="#c1ccd3" stroke-linecap="round" stroke-miterlimit="10" stroke-width="4"/>
      <rect id="Rectangle_527" data-name="Rectangle 527" width="48.489" height="10.827" transform="translate(14.592)" fill="none" stroke="#0277bd" stroke-linecap="round" stroke-miterlimit="10" stroke-width="4"/>
      <rect id="Rectangle_528" data-name="Rectangle 528" width="3.883" height="3.883" transform="translate(20.224 3.86)" fill="none"/>
      <rect id="Rectangle_529" data-name="Rectangle 529" width="3.883" height="3.883" transform="translate(27.61 3.86)" fill="none"/>
      <rect id="Rectangle_530" data-name="Rectangle 530" width="3.883" height="3.883" transform="translate(35.115 3.86)" fill="none"/>
      <path id="Path_791" data-name="Path 791" d="M2197.017,657.8h-48.49V609.833h48.49V657.8Z" transform="translate(-2148.527 -599.253)" fill="none" stroke="#c1ccd3" stroke-linecap="round" stroke-miterlimit="10" stroke-width="4"/>
      <g id="Group_108" data-name="Group 108" transform="translate(7.104 22.419)">
        <path id="Path_792" data-name="Path 792" d="M2163.8,625.9l-7.488,9.084,7.488,7.611" transform="translate(-2156.312 -623.079)" fill="none" stroke="#0277bd" stroke-linecap="round" stroke-linejoin="round" stroke-width="2"/>
        <path id="Path_793" data-name="Path 793" d="M2184.835,625.9l7.857,8.347-7,8.347" transform="translate(-2158.811 -623.079)" fill="none" stroke="#0277bd" stroke-linecap="round" stroke-linejoin="round" stroke-width="2"/>
        <line id="Line_22" data-name="Line 22" x1="9.698" y2="22.71" transform="translate(12.153)" fill="none" stroke="#0277bd" stroke-linecap="round" stroke-linejoin="round" stroke-width="2"/>
      </g>
    </g>
    <g id="Group_112" data-name="Group 112" transform="translate(132.076 410.119)">
      <g id="Group_110" data-name="Group 110" transform="translate(17.674 18.078)">
        <path id="Path_794" data-name="Path 794" d="M1910.008,458.577c-1.141-4.578-3.3-8.03-7.911-8.03h-5.941v7.023a10.161,10.161,0,0,1-9.9,10.044h-15.822a8.073,8.073,0,0,0-7.911,8.045v15.081c0,4.3,3.734,6.815,7.911,8.044a26.616,26.616,0,0,0,15.822,0c3.984-1.155,7.911-3.481,7.911-8.044v-6.03h-15.807v-2.015H1902.1c4.607,0,6.311-3.214,7.911-8.029,1.66-4.963,1.586-9.734,0-16.088Z" transform="translate(-1862.527 -450.547)" fill="none" stroke="#0277bd" stroke-linecap="round" stroke-miterlimit="10" stroke-width="3.2"/>
        <path id="Path_795" data-name="Path 795" d="M1889.34,492.39a3.015,3.015,0,1,1-2.977,3.007A2.993,2.993,0,0,1,1889.34,492.39Z" transform="translate(-1864.615 -454.212)" fill="none" stroke="#0277bd" stroke-linecap="round" stroke-miterlimit="10" stroke-width="3.2"/>
      </g>
      <g id="Group_111" data-name="Group 111">
        <path id="Path_796" data-name="Path 796" d="M1868.015,462.747h15.822a7.976,7.976,0,0,0,7.91-8.044v-15.1c0-4.3-3.614-7.511-7.91-8.236a48.82,48.82,0,0,0-15.822.015c-6.7,1.185-7.911,3.659-7.911,8.237v6.029h15.837v2.015h-21.777a9.892,9.892,0,0,0-9.9,8.03,29.673,29.673,0,0,0,0,16.088c1.126,4.682,3.807,8.029,8.415,8.029h5.437v-7.229a10.059,10.059,0,0,1,9.9-9.838Z" transform="translate(-1843.156 -430.733)" fill="none" stroke="#c1ccd3" stroke-linecap="round" stroke-miterlimit="10" stroke-width="3.2"/>
        <path id="Path_797" data-name="Path 797" d="M1869.028,442.089a3.015,3.015,0,1,1,2.978-3.007A2.994,2.994,0,0,1,1869.028,442.089Z" transform="translate(-1845.162 -431.2)" fill="none" stroke="#c1ccd3" stroke-linecap="round" stroke-miterlimit="10" stroke-width="3.2"/>
      </g>
    </g>
    <g id="Group_113" data-name="Group 113" transform="translate(278.184 410.32)">
      <rect id="Rectangle_531" data-name="Rectangle 531" width="29.367" height="25.972" transform="translate(17.484)" fill="none" stroke="#0277bd" stroke-linecap="round" stroke-miterlimit="10" stroke-width="3.2"/>
      <rect id="Rectangle_532" data-name="Rectangle 532" width="29.367" height="25.972" transform="translate(0 12.986)" fill="none" stroke="#c1ccd3" stroke-linecap="round" stroke-miterlimit="10" stroke-width="3.2"/>
      <rect id="Rectangle_533" data-name="Rectangle 533" width="29.367" height="25.972" transform="translate(20.2 33.525)" fill="none" stroke="#0277bd" stroke-linecap="round" stroke-miterlimit="10" stroke-width="3.2"/>
      <rect id="Rectangle_534" data-name="Rectangle 534" width="29.367" height="25.972" transform="translate(37.684 19.606)" fill="none" stroke="#c1ccd3" stroke-linecap="round" stroke-miterlimit="10" stroke-width="3.2"/>
    </g>
    <g id="Group_114" data-name="Group 114" transform="translate(132.682 617.959)">
      <path id="Path_798" data-name="Path 798" d="M1888.21,611.406h17.909v47.7h-62.3v-47.7h17.569" transform="translate(-1843.82 -595.684)" fill="none" stroke="#c1ccd3" stroke-linecap="round" stroke-miterlimit="10" stroke-width="3.2"/>
      <line id="Line_23" data-name="Line 23" x2="62.383" transform="translate(0 52.218)" fill="none" stroke="#c1ccd3" stroke-miterlimit="10" stroke-width="3.2"/>
      <line id="Line_24" data-name="Line 24" x2="24.953" transform="translate(18.842 71.315)" fill="none" stroke="#c1ccd3" stroke-miterlimit="10" stroke-width="3.2"/>
      <g id="lightbulb-3" data-name="lightbulb" transform="translate(15.617)">
        <path id="Path_799" data-name="Path 799" d="M1876.052,601.045a8.254,8.254,0,0,0-8.245,8.245,1.374,1.374,0,0,0,2.748,0,5.5,5.5,0,0,1,5.5-5.5,1.374,1.374,0,0,0,0-2.748Zm-6.866,32.565a1.373,1.373,0,0,0,.23.759l2.1,3.164a1.376,1.376,0,0,0,1.144.613h6.773a1.374,1.374,0,0,0,1.144-.613l2.1-3.164a1.381,1.381,0,0,0,.23-.759l0-3.709h-13.739Zm6.866-39.437a15.108,15.108,0,0,0-11.375,25.06,24.587,24.587,0,0,1,4.5,7.915v.005h4.123v-.01a4.055,4.055,0,0,0-.185-1.209,27.076,27.076,0,0,0-5.339-9.419,10.993,10.993,0,1,1,16.55,0,27.142,27.142,0,0,0-5.334,9.4,4.1,4.1,0,0,0-.191,1.229v.008h4.122v0a24.588,24.588,0,0,1,4.5-7.915,15.109,15.109,0,0,0-11.376-25.061Z" transform="translate(-1860.936 -594.174)" fill="#0277bd"/>
      </g>
    </g>
    <g id="Group_116" data-name="Group 116" transform="translate(278.184 624.515)">
      <g id="Group_115" data-name="Group 115">
        <path id="Path_800" data-name="Path 800" d="M2020.309,601.359h45.281v47.7h-62.3v-47.7h17.569" transform="translate(-2003.292 -601.359)" fill="none" stroke="#c1ccd3" stroke-linecap="round" stroke-miterlimit="10" stroke-width="3.2"/>
        <line id="Line_25" data-name="Line 25" x2="62.383" transform="translate(0 36.496)" fill="none" stroke="#c1ccd3" stroke-miterlimit="10" stroke-width="3.2"/>
        <line id="Line_26" data-name="Line 26" x2="17.176" transform="translate(22.731 55.593)" fill="none" stroke="#c1ccd3" stroke-miterlimit="10" stroke-width="3.2"/>
      </g>
      <rect id="Rectangle_535" data-name="Rectangle 535" width="21.374" height="36.563" transform="translate(47.9 20.006)" fill="none" stroke="#0277bd" stroke-linecap="round" stroke-miterlimit="10" stroke-width="3.2"/>
    </g>
    <g id="Group_117" data-name="Group 117" transform="translate(0 619.13)">
      <path id="Path_801" data-name="Path 801" d="M1758.875,605.331V611.5c0,5.439-13.544,9.874-30.238,9.874S1698.4,616.94,1698.4,611.5v-6.171c0-5.438,13.544-9.873,30.237-9.873S1758.875,599.893,1758.875,605.331Z" transform="translate(-1698.4 -595.458)" fill="none" stroke="#c1ccd3" stroke-linecap="round" stroke-miterlimit="10" stroke-width="3.2"/>
      <path id="Path_802" data-name="Path 802" d="M1758.875,621.5v13.884c0,5.438-13.544,9.873-30.238,9.873s-30.237-4.435-30.237-9.873V621.5c6.5,4.474,18.387,6.557,30.237,6.557S1752.378,625.971,1758.875,621.5Z" transform="translate(-1698.4 -597.739)" fill="none" stroke="#0277bd" stroke-linecap="round" stroke-miterlimit="10" stroke-width="3.2"/>
      <path id="Path_803" data-name="Path 803" d="M1758.875,645.168v13.884c0,5.439-13.544,9.874-30.238,9.874s-30.237-4.435-30.237-9.874V645.168c6.5,4.474,18.387,6.557,30.237,6.557S1752.378,649.642,1758.875,645.168Z" transform="translate(-1698.4 -599.812)" fill="none" stroke="#c1ccd3" stroke-linecap="round" stroke-miterlimit="10" stroke-width="3.2"/>
    </g>
    <g id="Group_118" data-name="Group 118" transform="translate(408.286 412.847)">
      <path id="Path_804" data-name="Path 804" d="M2166.78,436.059a6.41,6.41,0,0,0-6.209,4.842c-.08,0-.141-.02-.221-.02a6.436,6.436,0,0,0-6.43,6.43,5.923,5.923,0,0,0,.171,1.406,7.968,7.968,0,0,0-4.159,10.941,8.007,8.007,0,0,0,.914,14.366,7.364,7.364,0,0,0-.141,1.416,7.228,7.228,0,0,0,7.233,7.234,6.82,6.82,0,0,0,1.206-.12,7.216,7.216,0,0,0,14.064-2.29V442.489A6.435,6.435,0,0,0,2166.78,436.059Z" transform="translate(-2145.884 -436.059)" fill="none" stroke="#c1ccd3" stroke-linecap="round" stroke-miterlimit="10" stroke-width="3.2"/>
      <path id="Path_805" data-name="Path 805" d="M2206.681,466.6a7.993,7.993,0,0,0-4.048-6.942,7.9,7.9,0,0,0,.834-3.506,8.038,8.038,0,0,0-4.993-7.434,6.37,6.37,0,0,0-6.259-7.836c-.08,0-.15.02-.221.02a6.417,6.417,0,0,0-12.638,1.588v37.773a7.216,7.216,0,0,0,14.064,2.29,6.825,6.825,0,0,0,1.206.12,7.228,7.228,0,0,0,7.233-7.234,7.344,7.344,0,0,0-.141-1.416A8.036,8.036,0,0,0,2206.681,466.6Z" transform="translate(-2148.816 -436.059)" fill="none" stroke="#0277bd" stroke-linecap="round" stroke-miterlimit="10" stroke-width="3.2"/>
    </g>
    <g id="Group_120" data-name="Group 120" transform="translate(536.214 408.658)">
      <path id="Path_806" data-name="Path 806" d="M2302.086,442.171V431.344h48.49v47.967h-14.591" transform="translate(-2287.495 -431.344)" fill="none" stroke="#c1ccd3" stroke-linecap="round" stroke-miterlimit="10" stroke-width="4"/>
      <rect id="Rectangle_536" data-name="Rectangle 536" width="48.489" height="10.827" transform="translate(14.592)" fill="none" stroke="#0277bd" stroke-linecap="round" stroke-miterlimit="10" stroke-width="4"/>
      <rect id="Rectangle_537" data-name="Rectangle 537" width="3.883" height="3.883" transform="translate(20.224 3.86)" fill="none"/>
      <rect id="Rectangle_538" data-name="Rectangle 538" width="3.883" height="3.883" transform="translate(27.61 3.86)" fill="none"/>
      <rect id="Rectangle_539" data-name="Rectangle 539" width="3.883" height="3.883" transform="translate(35.115 3.86)" fill="none"/>
      <path id="Path_807" data-name="Path 807" d="M2334.585,490.906h-48.49V442.939h48.49v47.967Z" transform="translate(-2286.094 -432.36)" fill="none" stroke="#c1ccd3" stroke-linecap="round" stroke-miterlimit="10" stroke-width="4"/>
      <g id="Group_119" data-name="Group 119" transform="translate(7.104 22.419)">
        <path id="Path_808" data-name="Path 808" d="M2301.368,459.009l-7.488,9.084,7.488,7.611" transform="translate(-2293.88 -456.186)" fill="none" stroke="#0277bd" stroke-linecap="round" stroke-linejoin="round" stroke-width="2"/>
        <path id="Path_809" data-name="Path 809" d="M2322.4,459.009l7.856,8.347-7,8.348" transform="translate(-2296.378 -456.186)" fill="none" stroke="#0277bd" stroke-linecap="round" stroke-linejoin="round" stroke-width="2"/>
        <line id="Line_27" data-name="Line 27" x1="9.698" y2="22.71" transform="translate(12.153)" fill="none" stroke="#0277bd" stroke-linecap="round" stroke-linejoin="round" stroke-width="2"/>
      </g>
    </g>
    <g id="Group_122" data-name="Group 122" transform="translate(940.918 621.666)">
      <path id="Path_810" data-name="Path 810" d="M2745.645,609.064V598.237h48.49V646.2h-14.591" transform="translate(-2731.054 -598.237)" fill="none" stroke="#c1ccd3" stroke-linecap="round" stroke-miterlimit="10" stroke-width="4"/>
      <rect id="Rectangle_540" data-name="Rectangle 540" width="48.489" height="10.827" transform="translate(14.592)" fill="none" stroke="#0277bd" stroke-linecap="round" stroke-miterlimit="10" stroke-width="4"/>
      <rect id="Rectangle_541" data-name="Rectangle 541" width="3.883" height="3.883" transform="translate(20.224 3.86)" fill="none"/>
      <rect id="Rectangle_542" data-name="Rectangle 542" width="3.883" height="3.883" transform="translate(27.61 3.86)" fill="none"/>
      <rect id="Rectangle_543" data-name="Rectangle 543" width="3.883" height="3.883" transform="translate(35.115 3.86)" fill="none"/>
      <path id="Path_811" data-name="Path 811" d="M2778.144,657.8h-48.49V609.833h48.49V657.8Z" transform="translate(-2729.653 -599.253)" fill="none" stroke="#c1ccd3" stroke-linecap="round" stroke-miterlimit="10" stroke-width="4"/>
      <g id="Group_121" data-name="Group 121" transform="translate(7.104 22.419)">
        <path id="Path_812" data-name="Path 812" d="M2744.927,625.9l-7.488,9.084,7.488,7.611" transform="translate(-2737.439 -623.079)" fill="none" stroke="#0277bd" stroke-linecap="round" stroke-linejoin="round" stroke-width="2"/>
        <path id="Path_813" data-name="Path 813" d="M2765.962,625.9l7.856,8.347-7,8.347" transform="translate(-2739.938 -623.079)" fill="none" stroke="#0277bd" stroke-linecap="round" stroke-linejoin="round" stroke-width="2"/>
        <line id="Line_28" data-name="Line 28" x1="9.698" y2="22.71" transform="translate(12.153)" fill="none" stroke="#0277bd" stroke-linecap="round" stroke-linejoin="round" stroke-width="2"/>
      </g>
    </g>
    <g id="Group_125" data-name="Group 125" transform="translate(662.298 410.119)">
      <g id="Group_123" data-name="Group 123" transform="translate(17.674 18.078)">
        <path id="Path_814" data-name="Path 814" d="M2491.135,458.577c-1.141-4.578-3.3-8.03-7.912-8.03h-5.941v7.023a10.16,10.16,0,0,1-9.9,10.044h-15.822a8.073,8.073,0,0,0-7.91,8.045v15.081c0,4.3,3.734,6.815,7.91,8.044a26.616,26.616,0,0,0,15.822,0c3.985-1.155,7.911-3.481,7.911-8.044v-6.03h-15.807v-2.015h23.732c4.608,0,6.311-3.214,7.912-8.029,1.658-4.963,1.585-9.734,0-16.088Z" transform="translate(-2443.654 -450.547)" fill="none" stroke="#0277bd" stroke-linecap="round" stroke-miterlimit="10" stroke-width="3.2"/>
        <path id="Path_815" data-name="Path 815" d="M2470.467,492.39a3.015,3.015,0,1,1-2.978,3.007A2.994,2.994,0,0,1,2470.467,492.39Z" transform="translate(-2445.742 -454.212)" fill="none" stroke="#0277bd" stroke-linecap="round" stroke-miterlimit="10" stroke-width="3.2"/>
      </g>
      <g id="Group_124" data-name="Group 124">
        <path id="Path_816" data-name="Path 816" d="M2449.143,462.747h15.822a7.976,7.976,0,0,0,7.91-8.044v-15.1c0-4.3-3.615-7.511-7.91-8.236a48.82,48.82,0,0,0-15.822.015c-6.7,1.185-7.912,3.659-7.912,8.237v6.029h15.837v2.015H2435.29a9.891,9.891,0,0,0-9.9,8.03,29.676,29.676,0,0,0,0,16.088c1.126,4.682,3.808,8.029,8.415,8.029h5.436v-7.229a10.06,10.06,0,0,1,9.9-9.838Z" transform="translate(-2424.283 -430.733)" fill="none" stroke="#c1ccd3" stroke-linecap="round" stroke-miterlimit="10" stroke-width="3.2"/>
        <path id="Path_817" data-name="Path 817" d="M2450.155,442.089a3.015,3.015,0,1,1,2.977-3.007A2.995,2.995,0,0,1,2450.155,442.089Z" transform="translate(-2426.289 -431.2)" fill="none" stroke="#c1ccd3" stroke-linecap="round" stroke-miterlimit="10" stroke-width="3.2"/>
      </g>
    </g>
    <g id="Group_126" data-name="Group 126" transform="translate(808.406 410.32)">
      <rect id="Rectangle_544" data-name="Rectangle 544" width="29.367" height="25.972" transform="translate(17.484)" fill="none" stroke="#0277bd" stroke-linecap="round" stroke-miterlimit="10" stroke-width="3.2"/>
      <rect id="Rectangle_545" data-name="Rectangle 545" width="29.367" height="25.972" transform="translate(0 12.986)" fill="none" stroke="#c1ccd3" stroke-linecap="round" stroke-miterlimit="10" stroke-width="3.2"/>
      <rect id="Rectangle_546" data-name="Rectangle 546" width="29.367" height="25.972" transform="translate(20.2 33.525)" fill="none" stroke="#0277bd" stroke-linecap="round" stroke-miterlimit="10" stroke-width="3.2"/>
      <rect id="Rectangle_547" data-name="Rectangle 547" width="29.367" height="25.972" transform="translate(37.684 19.606)" fill="none" stroke="#c1ccd3" stroke-linecap="round" stroke-miterlimit="10" stroke-width="3.2"/>
    </g>
    <g id="Group_127" data-name="Group 127" transform="translate(662.903 617.959)">
      <path id="Path_818" data-name="Path 818" d="M2469.336,611.406h17.909v47.7h-62.3v-47.7h17.569" transform="translate(-2424.947 -595.684)" fill="none" stroke="#c1ccd3" stroke-linecap="round" stroke-miterlimit="10" stroke-width="3.2"/>
      <line id="Line_29" data-name="Line 29" x2="62.383" transform="translate(0 52.218)" fill="none" stroke="#c1ccd3" stroke-miterlimit="10" stroke-width="3.2"/>
      <line id="Line_30" data-name="Line 30" x2="24.953" transform="translate(18.842 71.315)" fill="none" stroke="#c1ccd3" stroke-miterlimit="10" stroke-width="3.2"/>
      <g id="lightbulb-4" data-name="lightbulb" transform="translate(15.616)">
        <path id="Path_819" data-name="Path 819" d="M2457.179,601.045a8.253,8.253,0,0,0-8.245,8.245,1.374,1.374,0,0,0,2.748,0,5.5,5.5,0,0,1,5.5-5.5,1.374,1.374,0,0,0,0-2.748Zm-6.866,32.565a1.366,1.366,0,0,0,.23.759l2.105,3.164a1.375,1.375,0,0,0,1.144.613h6.772a1.371,1.371,0,0,0,1.144-.613l2.1-3.164a1.379,1.379,0,0,0,.231-.759l0-3.709h-13.738Zm6.866-39.437a15.107,15.107,0,0,0-11.375,25.06,24.585,24.585,0,0,1,4.5,7.915v.005h4.122v-.01a4.023,4.023,0,0,0-.184-1.209,27.081,27.081,0,0,0-5.339-9.419,10.994,10.994,0,1,1,16.549,0,27.136,27.136,0,0,0-5.333,9.4,4.078,4.078,0,0,0-.191,1.229v.008h4.122v0a24.554,24.554,0,0,1,4.5-7.915,15.109,15.109,0,0,0-11.376-25.061Z" transform="translate(-2442.062 -594.174)" fill="#0277bd"/>
      </g>
    </g>
    <g id="Group_129" data-name="Group 129" transform="translate(808.406 624.515)">
      <g id="Group_128" data-name="Group 128">
        <path id="Path_820" data-name="Path 820" d="M2601.436,601.359h45.281v47.7h-62.3v-47.7h17.569" transform="translate(-2584.418 -601.359)" fill="none" stroke="#c1ccd3" stroke-linecap="round" stroke-miterlimit="10" stroke-width="3.2"/>
        <line id="Line_31" data-name="Line 31" x2="62.383" transform="translate(0 36.496)" fill="none" stroke="#c1ccd3" stroke-miterlimit="10" stroke-width="3.2"/>
        <line id="Line_32" data-name="Line 32" x2="17.176" transform="translate(22.731 55.593)" fill="none" stroke="#c1ccd3" stroke-miterlimit="10" stroke-width="3.2"/>
      </g>
      <rect id="Rectangle_548" data-name="Rectangle 548" width="21.374" height="36.563" transform="translate(47.9 20.006)" fill="none" stroke="#0277bd" stroke-linecap="round" stroke-miterlimit="10" stroke-width="3.2"/>
    </g>
    <g id="Group_130" data-name="Group 130" transform="translate(530.222 619.13)">
      <path id="Path_821" data-name="Path 821" d="M2340,605.331V611.5c0,5.439-13.544,9.874-30.237,9.874s-30.237-4.435-30.237-9.874v-6.171c0-5.438,13.544-9.873,30.237-9.873S2340,599.893,2340,605.331Z" transform="translate(-2279.527 -595.458)" fill="none" stroke="#c1ccd3" stroke-linecap="round" stroke-miterlimit="10" stroke-width="3.2"/>
      <path id="Path_822" data-name="Path 822" d="M2340,621.5v13.884c0,5.438-13.544,9.873-30.237,9.873s-30.237-4.435-30.237-9.873V621.5c6.5,4.474,18.386,6.557,30.237,6.557S2333.5,625.971,2340,621.5Z" transform="translate(-2279.527 -597.739)" fill="none" stroke="#0277bd" stroke-linecap="round" stroke-miterlimit="10" stroke-width="3.2"/>
      <path id="Path_823" data-name="Path 823" d="M2340,645.168v13.884c0,5.439-13.544,9.874-30.237,9.874s-30.237-4.435-30.237-9.874V645.168c6.5,4.474,18.386,6.557,30.237,6.557S2333.5,649.642,2340,645.168Z" transform="translate(-2279.527 -599.812)" fill="none" stroke="#c1ccd3" stroke-linecap="round" stroke-miterlimit="10" stroke-width="3.2"/>
    </g>
    <g id="Group_131" data-name="Group 131" transform="translate(938.507 412.847)">
      <path id="Path_824" data-name="Path 824" d="M2747.906,436.059a6.41,6.41,0,0,0-6.208,4.842c-.08,0-.14-.02-.221-.02a6.436,6.436,0,0,0-6.43,6.43,5.9,5.9,0,0,0,.171,1.406,7.968,7.968,0,0,0-4.159,10.941,8.007,8.007,0,0,0,.915,14.366,7.364,7.364,0,0,0-.142,1.416,7.229,7.229,0,0,0,7.233,7.234,6.819,6.819,0,0,0,1.206-.12,7.216,7.216,0,0,0,14.064-2.29V442.489A6.435,6.435,0,0,0,2747.906,436.059Z" transform="translate(-2727.01 -436.059)" fill="none" stroke="#c1ccd3" stroke-linecap="round" stroke-miterlimit="10" stroke-width="3.2"/>
      <path id="Path_825" data-name="Path 825" d="M2787.807,466.6a8,8,0,0,0-4.048-6.942,7.912,7.912,0,0,0,.834-3.506,8.039,8.039,0,0,0-4.993-7.434,6.366,6.366,0,0,0-6.258-7.836c-.08,0-.151.02-.221.02a6.418,6.418,0,0,0-12.639,1.588v37.773a7.216,7.216,0,0,0,14.065,2.29,6.825,6.825,0,0,0,1.205.12,7.228,7.228,0,0,0,7.234-7.234,7.364,7.364,0,0,0-.141-1.416A8.036,8.036,0,0,0,2787.807,466.6Z" transform="translate(-2729.942 -436.059)" fill="none" stroke="#0277bd" stroke-linecap="round" stroke-miterlimit="10" stroke-width="3.2"/>
    </g>
  </g>
</svg>
